#N canvas 513 7 435 684 10;
#N canvas 0 0 450 300 graph1 0;
#X array sample-table 44104 float 0;
#X coords 0 1.02 44103 -1.02 200 130 1;
#X restore 6 507 graph;
#X obj 68 428 tabread4~ sample-table;
#X obj 67 408 line~;
#X obj 169 317 loadbang;
#X obj 169 356 soundfiler;
#X msg 169 337 read voice.wav sample-table;
#X obj 78 470 dac~;
#X msg 169 373 ..; pd dsp 1;
#X obj 17 253 lib/ipod_decode;
#X msg 68 389 ..$1 .., ..$2 ..$3;
#X obj 3 353 metro 100;
#X obj 3 334 tgl 15 0 empty empty empty 0 -6 0 8 -262144 -1 -1 1 1 ;
#X obj 3 1 cnv 15 160 107 empty empty empty 20 12 0 14 -233017 -66577 0;
#X obj 27 13 hsl 128 18 1 1000 0 0 empty pod_slider empty -2 -6 0 8 -262144 -1 -1 521 1;
#X text 44 13 position in file;
#X obj 40 289 s fwrd;
#X obj 235 358 r fwrd;
#X obj 235 377 sel 1;
#X obj 235 396 bng 15 250 50 0 empty empty empty 0 -6 0 8 -262144 -1 -1;
#N canvas 0 0 188 141 position 0;
#X obj 7 88 s pod_slider;
#X obj 76 45 100;
#X obj 6 32 moses 0;
#X obj 76 68 moses 1000;
#X msg 6 54 1;
#X msg 131 88 999;
#X obj 6 8 inlet;
#X obj 51 108 outlet;
#X obj 91 108 outlet;
#X obj 131 108 outlet;
#X obj 101 11 inlet;
#X connect 1 0 3 0;
#X connect 2 0 4 0;
#X connect 2 1 7 0;
#X connect 3 0 8 0;
#X connect 3 1 5 0;
#X connect 4 0 9 0;
#X connect 5 0 9 0;
#X connect 6 0 1 0;
#X connect 6 0 2 0;
#X connect 6 0 0 0;
#X connect 10 0 1 1;
#X restore 85 304 pd position;
#N canvas 0 0 470 320 counter 0;
#X obj 33 17 inlet;
#X msg 33 44 bang;
#X obj 90 68 1;
#X obj 33 69 float;
#X msg 79 46 0;
#X obj 52 105 - 1;
#X floatatom 52 129 5 0 0 0 - - -;
#X obj 52 156 send count;
#X obj 117 156 send pod_count;
#X obj 86 94 sel 5;
#X connect 0 0 1 0;
#X connect 1 0 3 0;
#X connect 2 0 3 1;
#X connect 2 0 5 0;
#X connect 2 0 9 0;
#X connect 3 0 2 0;
#X connect 4 0 3 1;
#X connect 5 0 6 0;
#X connect 6 0 7 0;
#X connect 6 0 8 0;
#X connect 9 0 4 0;
#X restore 235 415 pd counter;
#X obj 27 31 hsl 128 18 50 500 0 0 empty pod_grainsize empty -2 -6 0 8 -233017 -1 -1 0 1;
#X obj 27 49 hsl 128 18 50 500 0 0 empty pod_graintime empty -2 -6 0 8 -262144 -1 -1 0 1;
#X text 59 31 Grain Size;
#X text 59 49 Grain Time;
#X obj 168 269 s pod_grainsize;
#X obj 168 290 s pod_graintime;
#X obj 6 13 vradio 18 1 0 5 empty pod_count empty 0 -6 0 8 -262144 -195568 -1 0;
#N canvas 7 0 236 264 router 0;
#X obj 21 20 inlet;
#X obj 18 -1 r count;
#X obj 3 89 pack 0 1;
#X obj 3 216 outlet;
#X obj 43 216 outlet;
#X obj 84 216 outlet;
#X obj 21 46 t b f;
#X obj 3 69 f;
#X obj 124 216 outlet;
#X obj 165 216 outlet;
#X obj 3 110 route 0 1 2 3 4;
#X connect 0 0 6 0;
#X connect 1 0 7 1;
#X connect 2 0 10 0;
#X connect 6 0 7 0;
#X connect 6 1 2 1;
#X connect 7 0 2 0;
#X connect 10 0 3 0;
#X connect 10 1 4 0;
#X connect 10 2 5 0;
#X connect 10 3 8 0;
#X connect 10 4 9 0;
#X restore 101 282 pd router;
#X obj 17 147 r count;
#X obj 17 214 bng 15 250 50 0 empty empty empty 0 -6 0 8 -262144 -1 -1;
#X obj 34 214 bng 15 250 50 0 empty empty empty 0 -6 0 8 -262144 -1 -1;
#X obj 52 214 bng 15 250 50 0 empty empty empty 0 -6 0 8 -262144 -1 -1;
#X obj 68 370 pack 0 0 100;
#X obj 17 165 pipe 5;
#X obj 17 231 f 200;
#X obj 52 231 f 100;
#X obj 89 231 f 100;
#X obj 27 67 hsl 128 18 0 500 0 0 empty pod_pan empty -2 -6 0 8 -233017 -1 -1 1626 1;
#X obj 27 85 hsl 128 18 0 500 0 0 empty pod_randomness empty -2 -6 0 8 -262144 -1 -1 0 1;
#X obj 265 269 s pod_pan;
#X obj 265 290 s pod_randomness;
#X text 81 67 Pan;
#X obj 17 183 sel 0 1 2 3 4;
#X obj 72 214 bng 15 250 50 0 empty empty empty 0 -6 0 8 -262144 -1 -1;
#X obj 90 214 bng 15 250 50 0 empty empty empty 0 -6 0 8 -262144 -1 -1;
#N canvas 0 0 458 308 random 0;
#X restore 206 230 pd random;
#N canvas 63 7 152 200 panning 0;
#X obj 2 4 inlet~;
#X obj 1 161 outlet~;
#X obj 62 161 outlet~;
#X obj 44 4 inlet;
#X obj 2 142 *~ 1;
#X obj 62 142 *~ 1;
#X obj 44 42 moses 0;
#X obj 81 61 moses 450;
#X obj 81 80 * 0.002;
#X obj 81 103 * -1;
#X obj 81 125 1;
#X connect 0 0 4 0;
#X connect 0 0 5 0;
#X connect 3 0 6 0;
#X connect 4 0 1 0;
#X connect 5 0 2 0;
#X connect 6 1 7 0;
#X connect 7 0 8 0;
#X connect 8 0 9 0;
#X connect 8 0 5 1;
#X connect 9 0 10 0;
#X connect 10 0 4 1;
#X restore 68 449 pd panning;
#X floatatom 183 183 5 0 0 0 - - -;
#X obj 123 230 f 250;
#X obj 49 3 hradio 10 1 0 7 empty pod_file empty 0 -6 0 8 -262144 -195568 -1 0;
#X text 7 -1 >>|;
#X text 120 -1 |<<;
#X obj 13 308 s bkwrd;
#X obj 301 357 r bkwrd;
#X obj 301 377 sel 1;
#X obj 301 396 bng 15 250 50 0 empty empty empty 0 -6 0 8 -262144 -1 -1;
#N canvas 0 0 486 336 counter 0;
#X obj 33 17 inlet;
#X msg 33 44 bang;
#X obj 90 68 1;
#X obj 33 69 float;
#X msg 79 46 0;
#X obj 52 105 - 1;
#X floatatom 52 129 5 0 0 0 - - -;
#X obj 52 154 send pod_file;
#X obj 20 177 send selectfile;
#X obj 86 94 sel 7;
#X connect 0 0 1 0;
#X connect 1 0 3 0;
#X connect 2 0 3 1;
#X connect 2 0 5 0;
#X connect 2 0 9 0;
#X connect 3 0 2 0;
#X connect 4 0 3 1;
#X connect 5 0 6 0;
#X connect 6 0 7 0;
#X connect 6 0 8 0;
#X connect 9 0 4 0;
#X restore 302 415 pd counter;
#N canvas 0 0 454 304 fileselect 0;
#X obj 27 20 receive selectfile;
#X obj 27 42 sel 0 1 2 3 4 5 6;
#X msg 27 75 read voice.wav sample-table;
#X obj 28 216 outlet;
#X msg 41 96 read loop0l.wav sample-table;
#X msg 52 116 read loop1l.wav sample-table;
#X msg 63 135 read loop2l2.wav sample-table;
#X msg 75 154 read loop3.wav sample-table;
#X msg 83 174 read arg.wav sample-table;
#X msg 93 193 read high.wav sample-table;
#X connect 0 0 1 0;
#X connect 1 0 2 0;
#X connect 1 1 4 0;
#X connect 1 2 5 0;
#X connect 1 3 6 0;
#X connect 1 4 7 0;
#X connect 1 5 8 0;
#X connect 1 6 9 0;
#X connect 2 0 3 0;
#X connect 4 0 3 0;
#X connect 5 0 3 0;
#X connect 6 0 3 0;
#X connect 7 0 3 0;
#X connect 8 0 3 0;
#X connect 9 0 3 0;
#X restore 259 445 pd fileselect;
#X msg 141 405 250;
#X obj 3 413 s bangerz;
#X obj 265 310 s randomambo;
#N canvas 43 284 250 211 rando 0;
#X obj 53 19 r bangerz;
#X obj 34 145 outlet;
#X obj 111 18 r randomambo;
#X obj 24 99 moses 0;
#X obj 35 121 moses 1000;
#X obj 49 48 random 100;
#X connect 0 0 5 0;
#X connect 2 0 5 1;
#X connect 3 1 4 0;
#X connect 4 0 1 0;
#X connect 5 0 3 0;
#X restore 107 158 pd rando;
#N canvas 43 284 250 211 rando 0;
#X obj 53 19 r bangerz;
#X obj 34 145 outlet;
#X obj 111 18 r randomambo;
#X obj 35 121 moses 500;
#X obj 24 99 moses 0;
#X obj 49 48 random 100;
#X connect 0 0 5 0;
#X connect 2 0 5 1;
#X connect 3 0 1 0;
#X connect 4 1 3 0;
#X connect 5 0 4 0;
#X restore 245 176 pd rando;
#X obj 159 230 f 100;
#X obj 26 398 bng 15 250 50 0 empty empty empty 0 -6 0 8 -262144 -1 -1;
#X obj 19 376 sel 1;
#X text 33 85 Random-range(play);
#X connect 1 0 47 0;
#X connect 2 0 1 0;
#X connect 3 0 5 0;
#X connect 3 0 7 0;
#X connect 3 0 11 0;
#X connect 3 0 18 0;
#X connect 3 0 56 0;
#X connect 3 0 59 0;
#X connect 5 0 4 0;
#X connect 8 0 53 0;
#X connect 8 2 66 0;
#X connect 8 3 15 0;
#X connect 8 4 28 0;
#X connect 9 0 2 0;
#X connect 10 0 33 0;
#X connect 11 0 10 0;
#X connect 16 0 17 0;
#X connect 17 0 18 0;
#X connect 18 0 20 0;
#X connect 19 0 33 0;
#X connect 19 1 33 1;
#X connect 19 2 8 0;
#X connect 28 0 19 0;
#X connect 28 0 35 1;
#X connect 28 1 25 0;
#X connect 28 1 10 1;
#X connect 28 1 19 1;
#X connect 28 1 36 1;
#X connect 28 2 33 2;
#X connect 28 2 26 0;
#X connect 28 2 37 1;
#X connect 28 3 40 0;
#X connect 28 3 47 1;
#X connect 28 3 49 1;
#X connect 28 4 41 0;
#X connect 28 4 61 0;
#X connect 28 4 64 1;
#X connect 29 0 34 0;
#X connect 30 0 35 0;
#X connect 31 0 36 0;
#X connect 32 0 37 0;
#X connect 33 0 9 0;
#X connect 34 0 43 0;
#X connect 35 0 8 0;
#X connect 36 0 8 0;
#X connect 37 0 8 0;
#X connect 43 0 30 0;
#X connect 43 1 31 0;
#X connect 43 2 32 0;
#X connect 43 3 44 0;
#X connect 43 4 45 0;
#X connect 44 0 49 0;
#X connect 45 0 64 0;
#X connect 47 0 6 0;
#X connect 47 1 6 1;
#X connect 48 0 28 0;
#X connect 49 0 8 0;
#X connect 54 0 55 0;
#X connect 55 0 56 0;
#X connect 56 0 57 0;
#X connect 58 0 4 0;
#X connect 59 0 47 1;
#X connect 62 0 35 1;
#X connect 62 0 19 0;
#X connect 62 0 28 0;
#X connect 63 0 49 1;
#X connect 63 0 47 1;
#X connect 63 0 40 0;
#X connect 64 0 8 0;
#X connect 65 0 60 0;
#X connect 66 0 65 0;

