#N canvas 359 0 599 709 10;
#X obj 173 291 loadbang;
#X obj 41 443 dac~;
#X obj 17 253 lib/ipod_decode;
#X obj 3 1 cnv 15 160 107 empty empty empty 20 12 0 14 -233017 -66577 0;
#X obj 171 372 sel 1;
#X obj 171 391 bng 15 250 50 0 empty empty empty 0 -6 0 8 -262144 -1 -1;
#N canvas 0 0 478 328 counter 0;
#X obj 33 17 inlet;
#X msg 33 44 bang;
#X obj 90 68 1;
#X obj 33 69 float;
#X msg 79 46 0;
#X obj 52 105 - 1;
#X floatatom 52 129 5 0 0 0 - - -;
#X obj 86 94 sel 5;
#X obj 52 156 outlet;
#X connect 0 0 1 0;
#X connect 1 0 3 0;
#X connect 2 0 3 1;
#X connect 2 0 5 0;
#X connect 2 0 7 0;
#X connect 3 0 2 0;
#X connect 4 0 3 1;
#X connect 5 0 6 0;
#X connect 6 0 8 0;
#X connect 7 0 4 0;
#X restore 171 410 pd counter;
#X obj 237 372 sel 1;
#X obj 237 391 bng 15 250 50 0 empty empty empty 0 -6 0 8 -262144 -1 -1;
#N canvas 0 0 506 356 counter 0;
#X obj 33 17 inlet;
#X msg 33 44 bang;
#X obj 90 68 1;
#X obj 33 69 float;
#X msg 79 46 0;
#X obj 52 105 - 1;
#X floatatom 52 129 5 0 0 0 - - -;
#X obj 86 94 sel 2;
#X obj 52 154 send pod_which;
#X obj 121 130 send which;
#X connect 0 0 1 0;
#X connect 1 0 3 0;
#X connect 2 0 3 1;
#X connect 2 0 5 0;
#X connect 2 0 7 0;
#X connect 2 0 9 0;
#X connect 3 0 2 0;
#X connect 4 0 3 1;
#X connect 5 0 6 0;
#X connect 6 0 8 0;
#X connect 7 0 4 0;
#X restore 238 410 pd counter;
#X obj 17 277 s fwrd;
#X obj 68 276 s bkwrd;
#X obj 16 13 hradio 11 1 0 12 empty pod_scroll empty 0 -6 0 8 -262144 -233017 -1 0;
#X obj 23 599 s pod_scroll;
#X obj 16 24 hradio 11 1 0 12 empty pod_select empty 0 -6 0 8 -262144 -233017 -1 0;
#X obj 106 600 s pod_select;
#X obj 5 13 vradio 11 1 0 5 empty pod_toggle empty 0 -6 0 8 -262144 -1 -1 4;
#X obj 159 431 s pod_toggle;
#X obj 87 334 s wheel;
#X obj 17 231 r wheelset;
#X obj 102 314 s action;
#X obj 19 35 hsl 127 11 30 1000 0 0 empty pod_tempo empty -2 -6 0 8 -262144 -1 -1 4533 1;
#N canvas 10 24 636 682 arpeggiator 0;
#X obj 64 568 outlet~;
#X obj 220 198 r noot;
#X obj 207 296 f;
#X obj 278 247 r noot;
#X obj 265 292 f;
#X obj 339 247 r noot;
#X obj 326 292 f;
#X obj 166 294 f;
#X obj 64 150 bng 15 250 50 0 empty empty empty 0 -6 0 8 -262144 -1 -1;
#N canvas 0 0 167 176 counter4 0;
#X obj 33 17 inlet;
#X msg 33 44 bang;
#X obj 90 68 1;
#X obj 33 69 float;
#X msg 79 46 0;
#X obj 86 94 sel 4;
#X obj 53 124 outlet;
#X obj 55 102 - 1;
#X connect 0 0 1 0;
#X connect 1 0 3 0;
#X connect 2 0 3 1;
#X connect 2 0 5 0;
#X connect 2 0 7 0;
#X connect 3 0 2 0;
#X connect 4 0 3 1;
#X connect 5 0 4 0;
#X connect 7 0 6 0;
#X restore 64 169 pd counter4;
#X obj 136 165 random 4;
#X obj 144 227 sel 0 1 2 3;
#X obj 236 375 s tom;
#X obj 53 442 r tom;
#X obj 53 465 mtof;
#X obj 170 249 r noot;
#X obj 265 172 r majmin;
#X obj 405 310 s majmin;
#X msg 405 280 3;
#X msg 431 281 4;
#N canvas 0 0 464 350 noots 0;
#X obj 62 30 sel 0 1 2 3 4 5 6 7 8 9 10 11;
#X msg 62 54 57;
#X msg 72 76 58;
#X msg 86 96 59;
#X msg 96 118 60;
#X msg 109 138 61;
#X msg 119 160 62;
#X msg 133 180 63;
#X msg 143 202 64;
#X msg 154 222 65;
#X msg 164 244 66;
#X msg 178 264 67;
#X msg 188 286 68;
#X obj 62 8 inlet;
#X obj 62 313 outlet;
#X connect 0 0 1 0;
#X connect 0 1 2 0;
#X connect 0 2 3 0;
#X connect 0 3 4 0;
#X connect 0 4 5 0;
#X connect 0 5 6 0;
#X connect 0 6 7 0;
#X connect 0 7 8 0;
#X connect 0 8 9 0;
#X connect 0 9 10 0;
#X connect 0 10 11 0;
#X connect 0 11 12 0;
#X connect 1 0 14 0;
#X connect 2 0 14 0;
#X connect 3 0 14 0;
#X connect 4 0 14 0;
#X connect 5 0 14 0;
#X connect 6 0 14 0;
#X connect 7 0 14 0;
#X connect 8 0 14 0;
#X connect 9 0 14 0;
#X connect 10 0 14 0;
#X connect 11 0 14 0;
#X connect 12 0 14 0;
#X connect 13 0 0 0;
#X restore 331 497 pd noots;
#X obj 58 90 tgl 15 0 empty empty empty 0 -6 0 8 -262144 -1 -1 1 1;
#X obj 331 524 s noot;
#X obj 25 187 s met;
#X obj 111 426 r met;
#X msg 111 477 1 .., 0 ..$1;
#X obj 147 426 r env;
#X obj 220 245 f;
#X obj 233 219 bng 15 250 50 0 empty empty empty 0 -6 0 8 -262144 -1 -1;
#X obj 65 518 *~;
#X obj 405 258 sel 0 1;
#X obj 405 237 tgl 15 0 empty empty empty 0 -6 0 8 -262144 -1 -1 0 1;
#N canvas 0 0 239 173 choose 0;
#X obj 30 37 inlet;
#X obj 72 36 inlet;
#X obj 147 31 inlet;
#X obj 30 146 outlet;
#X obj 30 118 spigot;
#X obj 72 118 spigot;
#X obj 147 52 sel 0 1;
#X msg 147 75 1;
#X msg 139 101 0;
#X msg 172 75 1;
#X msg 171 101 0;
#X connect 0 0 4 0;
#X connect 1 0 5 0;
#X connect 2 0 6 0;
#X connect 4 0 3 0;
#X connect 5 0 3 0;
#X connect 6 0 7 0;
#X connect 6 0 8 0;
#X connect 6 1 9 0;
#X connect 6 1 10 0;
#X connect 7 0 4 1;
#X connect 8 0 5 1;
#X connect 9 0 5 1;
#X connect 10 0 4 1;
#X restore 144 202 pd choose;
#X obj 193 130 tgl 15 0 empty empty empty 0 -6 0 8 -262144 -1 -1 0 1;
#X obj 405 215 r toggles;
#X obj 193 108 r toggles;
#X obj 58 49 r toggles;
#X obj 58 70 1;
#X obj 51 221 s tempbang;
#X obj 102 89 r tempo;
#X floatatom 331 471 5 0 0 0 - note -;
#X obj 53 492 osc~;
#X obj 459 275 s pod_majmin;
#X obj 201 149 s pod_randord;
#X obj 409 182 r froolie;
#X obj 219 74 r mew;
#X obj 111 451 f 250;
#X obj 334 159 r rocktave;
#X obj 355 184 * 12;
#X obj 220 270 3;
#X obj 279 269 7;
#X obj 339 269 12;
#X obj 236 352 0;
#X obj 111 501 line;
#X obj 58 117 metro 200;
#X obj 64 189 sel 3;
#X obj 111 568 outlet~;
#X obj 112 547 *~;
#X obj 123 520 * -1;
#X obj 156 521 1;
#X connect 1 0 27 0;
#X connect 2 0 52 0;
#X connect 3 0 50 0;
#X connect 4 0 52 0;
#X connect 5 0 51 0;
#X connect 6 0 52 0;
#X connect 7 0 52 0;
#X connect 8 0 9 0;
#X connect 8 0 10 0;
#X connect 8 0 23 0;
#X connect 9 0 32 0;
#X connect 9 0 55 0;
#X connect 10 0 32 1;
#X connect 11 0 7 0;
#X connect 11 1 2 0;
#X connect 11 2 4 0;
#X connect 11 3 6 0;
#X connect 13 0 14 0;
#X connect 14 0 41 0;
#X connect 15 0 7 1;
#X connect 16 0 28 0;
#X connect 16 0 49 1;
#X connect 18 0 17 0;
#X connect 19 0 17 0;
#X connect 20 0 22 0;
#X connect 21 0 54 0;
#X connect 24 0 46 0;
#X connect 25 0 53 0;
#X connect 26 0 46 1;
#X connect 27 0 49 0;
#X connect 28 0 27 0;
#X connect 29 0 0 0;
#X connect 30 0 18 0;
#X connect 30 1 19 0;
#X connect 31 0 30 0;
#X connect 31 0 42 0;
#X connect 32 0 11 0;
#X connect 33 0 32 2;
#X connect 33 0 43 0;
#X connect 34 0 31 0;
#X connect 35 0 33 0;
#X connect 36 0 37 0;
#X connect 37 0 21 0;
#X connect 39 0 54 1;
#X connect 40 0 20 0;
#X connect 41 0 29 0;
#X connect 41 0 57 0;
#X connect 44 0 31 0;
#X connect 45 0 33 0;
#X connect 46 0 25 0;
#X connect 47 0 48 0;
#X connect 48 0 52 1;
#X connect 49 0 2 1;
#X connect 50 0 4 1;
#X connect 51 0 6 1;
#X connect 52 0 12 0;
#X connect 53 0 29 1;
#X connect 53 0 58 0;
#X connect 54 0 8 0;
#X connect 55 0 38 0;
#X connect 57 0 56 0;
#X connect 58 0 59 0;
#X connect 59 0 57 1;
#X restore 36 416 pd arpeggiator;
#X obj 429 584 s pod_envelope;
#X obj 174 331 s toggles;
#X msg 174 311 0;
#X msg 230 308 ..; pd dsp 1;
#X obj 139 546 r tempbang;
#X floatatom 373 547 5 0 0 0 - - -;
#X obj 373 565 s tempo;
#X obj 311 356 bng 15 250 50 0 empty empty empty 0 -6 0 8 -262144 -1 -1;
#X obj 328 356 bng 15 250 50 0 empty empty empty 0 -6 0 8 -262144 -1 -1;
#X obj 346 356 bng 15 250 50 0 empty empty empty 0 -6 0 8 -262144 -1 -1;
#X obj 311 307 pipe 5;
#X obj 311 325 sel 0 1 2 3 4;
#X obj 366 356 bng 15 250 50 0 empty empty empty 0 -6 0 8 -262144 -1 -1;
#X obj 384 356 bng 15 250 50 0 empty empty empty 0 -6 0 8 -262144 -1 -1;
#X obj 417 383 f 250;
#X obj 373 420 s wheelset;
#X obj 311 289 r coont;
#X obj 171 450 s coont;
#N canvas 7 0 248 276 router------ 0;
#X obj 21 20 inlet;
#X obj 3 89 pack 0 1;
#X obj 3 216 outlet;
#X obj 43 216 outlet;
#X obj 84 216 outlet;
#X obj 21 46 t b f;
#X obj 3 69 f;
#X obj 124 216 outlet;
#X obj 165 216 outlet;
#X obj 3 110 route 0 1 2 3 4;
#X obj 18 -1 r coont;
#X connect 0 0 5 0;
#X connect 1 0 9 0;
#X connect 5 0 6 0;
#X connect 5 1 1 1;
#X connect 6 0 1 0;
#X connect 9 0 2 0;
#X connect 9 1 3 0;
#X connect 9 2 4 0;
#X connect 9 3 7 0;
#X connect 9 4 8 0;
#X connect 10 0 6 1;
#X restore 330 467 pd router------;
#X obj 330 448 r wheel;
#X obj 372 495 moses 30;
#X obj 373 519 moses 1000;
#X floatatom 87 297 5 0 0 0 - - -;
#X floatatom 441 547 5 0 0 0 - - -;
#X obj 440 495 moses 30;
#X obj 441 519 moses 1000;
#X obj 19 46 hsl 127 11 30 1000 0 0 empty pod_envelope empty -2 -6 0 8 -262144 -1 -1 7508 1;
#X obj 441 565 s env;
#X obj 408 301 r tempo;
#X obj 442 324 r env;
#X obj 61 555 2;
#X obj 20 515 moses 10;
#X obj 62 535 * 0.1;
#X msg 25 537 0;
#X obj 113 553 f;
#X obj 114 574 f;
#X obj 353 585 s pod_tempo;
#X obj 107 622 s note;
#X obj 19 57 hsl 127 11 -4 4 0 0 empty pod_oct empty -2 -6 0 8 -262144 -166441 -1 4725 1;
#X obj 209 520 moses 10;
#X obj 251 540 * 0.1;
#X msg 214 542 0;
#X obj 250 580 1;
#X obj 210 625 s pod_oct;
#X floatatom 272 623 5 0 0 0 - - rocktave;
#X obj 34 494 abs;
#X obj 239 504 abs;
#X obj 48 70 vradio 15 1 0 2 empty pod_which empty 0 -6 0 8 -262144 -1 -1 0;
#X obj 63 70 hradio 15 1 0 2 empty pod_majmin empty 0 -6 0 8 -262144 -195568 -1 0;
#X obj 63 85 hradio 15 1 0 2 empty pod_randord empty 0 -6 0 8 -262144 -195568 -1 0;
#X text 67 31 tempo;
#X text 57 42 envelope;
#X text 64 53 octave;
#X text 3 64 >>|;
#N canvas 0 0 462 312 which_Toggle 0;
#X obj 51 20 r which;
#X obj 50 100 route 1 2;
#X obj 61 47 f;
#X obj 50 73 pack 0 1;
#X msg 96 49 1;
#X obj 49 121 sel 1;
#X obj 85 121 sel 1;
#X obj 49 145 s froolie;
#X obj 85 166 s mew;
#X obj 102 20 r play;
#X connect 0 0 2 1;
#X connect 1 0 5 0;
#X connect 1 1 6 0;
#X connect 2 0 3 0;
#X connect 3 0 1 0;
#X connect 4 0 3 1;
#X connect 5 0 7 0;
#X connect 6 0 8 0;
#X connect 9 0 2 0;
#X connect 9 0 4 0;
#X restore 34 370 pd which_Toggle;
#X obj 39 316 bng 15 250 50 0 empty empty empty 0 -6 0 8 -262144 -1 -1;
#X obj 61 575 0;
#X obj 331 392 f;
#X obj 39 333 s play;
#X obj 39 297 sel 1;
#X text 94 83 Sq/R;
#X text 95 67 mi/ma;
#X text 49 96 |<< >||;
#X obj 250 560 ;
#X obj 234 602 - 5;
#X obj 453 383 f 41;
#X text 15 -1 a;
#X text 39 0 b;
#X text 72 -1 d;
#X text 94 -1 e;
#X text 128 -2 g;
#X obj 171 353 r bkwrd;
#X obj 237 352 r fwrd;
#X obj 383 384 f 200;
#X connect 0 0 25 0;
#X connect 0 0 26 0;
#X connect 0 0 5 0;
#X connect 0 0 8 0;
#X connect 2 0 10 0;
#X connect 2 2 82 0;
#X connect 2 3 11 0;
#X connect 2 4 45 0;
#X connect 2 5 20 0;
#X connect 4 0 5 0;
#X connect 5 0 6 0;
#X connect 6 0 17 0;
#X connect 6 0 40 0;
#X connect 7 0 8 0;
#X connect 8 0 9 0;
#X connect 19 0 2 0;
#X connect 22 0 1 0;
#X connect 22 1 1 1;
#X connect 25 0 24 0;
#X connect 27 0 58 0;
#X connect 28 0 29 0;
#X connect 28 0 59 0;
#X connect 30 0 80 0;
#X connect 31 0 57 0;
#X connect 32 0 96 0;
#X connect 33 0 34 0;
#X connect 34 0 30 0;
#X connect 34 1 31 0;
#X connect 34 2 32 0;
#X connect 34 3 35 0;
#X connect 34 4 36 0;
#X connect 35 0 37 0;
#X connect 36 0 88 0;
#X connect 37 0 38 0;
#X connect 39 0 33 0;
#X connect 41 0 68 0;
#X connect 41 2 43 0;
#X connect 41 3 47 0;
#X connect 41 4 69 0;
#X connect 42 0 41 0;
#X connect 43 1 44 0;
#X connect 44 0 28 0;
#X connect 45 0 18 0;
#X connect 46 0 50 0;
#X connect 46 0 23 0;
#X connect 47 1 48 0;
#X connect 48 0 46 0;
#X connect 51 0 96 1;
#X connect 52 0 37 1;
#X connect 53 0 79 0;
#X connect 54 0 56 0;
#X connect 54 1 55 0;
#X connect 55 0 53 0;
#X connect 56 0 53 0;
#X connect 57 0 58 1;
#X connect 58 0 15 0;
#X connect 58 0 60 0;
#X connect 62 0 64 0;
#X connect 62 1 63 0;
#X connect 63 0 86 0;
#X connect 64 0 86 0;
#X connect 65 0 87 0;
#X connect 68 0 54 0;
#X connect 68 0 80 1;
#X connect 69 0 62 0;
#X connect 69 0 88 1;
#X connect 78 0 81 0;
#X connect 79 0 13 0;
#X connect 79 0 57 1;
#X connect 80 0 38 0;
#X connect 82 0 78 0;
#X connect 86 0 65 0;
#X connect 87 0 66 0;
#X connect 87 0 67 0;
#X connect 88 0 38 0;
#X connect 94 0 4 0;
#X connect 95 0 7 0;
#X connect 96 0 38 0;

